<?xml version="1.0" encoding="utf-8"?>
<!-- Generator: Adobe Illustrator 16.0.0, SVG Export Plug-In . SVG Version: 6.00 Build 0)  -->
<!DOCTYPE svg PUBLIC "-//W3C//DTD SVG 1.1//EN" "http://www.w3.org/Graphics/SVG/1.1/DTD/svg11.dtd">
<svg version="1.1" id="Capa_1" xmlns="http://www.w3.org/2000/svg" xmlns:xlink="http://www.w3.org/1999/xlink" x="0px" y="0px"
	 width="255.997px" height="255.997px" viewBox="178.232 305.286 255.997 255.997"
	 enable-background="new 178.232 305.286 255.997 255.997" xml:space="preserve">
<path d="M402.972,496.49c4.256,10.557,3.963,21.48-0.851,31.586c-5.507,11.566-17.791,17.936-34.588,17.936
	c-0.003,0-0.003,0-0.004,0c-17.093-0.002-35.405-6.34-45.185-12.227c-9.827-5.916-14.094-6.963-15.144-7.145
	c-0.661,0.078-1.33,0.076-1.995-0.004c-0.906,0.16-5.156,1.158-15.104,7.148c-9.782,5.889-28.094,12.227-45.185,12.227
	c-16.801,0-29.085-6.369-34.593-17.936c-4.813-10.107-5.106-21.029-0.85-31.586c5.712-14.162,18.289-24.27,28.219-28.006
	c8.557-3.217,12.684-12.139,21.202-32.012c1.468-3.424,3.04-7.088,4.765-10.999c12.097-27.406,34.377-29.537,40.917-29.537
	c0.66,0,1.214,0.021,1.644,0.044c0.43-0.023,0.983-0.044,1.643-0.044c6.541,0,28.821,2.131,40.918,29.537
	c1.727,3.911,3.299,7.579,4.766,11.003c8.521,19.871,12.646,28.791,21.201,32.008C384.683,472.219,397.261,482.328,402.972,496.49z
	 M226.154,453.338c15.385-4.33,23.867-22.201,18.905-39.837c-4.157-14.776-16.465-25.096-29.931-25.096
	c-2.36,0-4.706,0.323-6.973,0.961c-15.385,4.33-23.866,22.201-18.905,39.837c4.158,14.773,16.467,25.096,29.934,25.096
	C221.541,454.299,223.886,453.974,226.154,453.338z M269.221,397.021c1.538,0,3.088-0.133,4.604-0.399
	c8.606-1.51,16.132-7.295,20.643-15.868c4.195-7.976,5.569-17.715,3.866-27.428c-3.331-18.987-17.284-32.769-33.177-32.769
	c-1.538,0-3.088,0.134-4.604,0.401c-8.608,1.508-16.131,7.294-20.643,15.867c-4.197,7.975-5.571,17.716-3.867,27.426
	C239.373,383.24,253.326,397.021,269.221,397.021z M421.742,404.996c-3.453-7.785-9.814-13.482-17.452-15.631
	c-2.267-0.638-4.612-0.961-6.973-0.961c-13.465,0-25.773,10.32-29.931,25.096c-4.961,17.636,3.52,35.507,18.905,39.837
	c2.267,0.639,4.614,0.961,6.972,0.961c13.465,0,25.775-10.32,29.932-25.096C425.521,420.944,425.005,412.347,421.742,404.996z
	 M338.621,396.622c1.518,0.265,3.064,0.4,4.604,0.4c0.001,0,0.001,0,0.001,0c15.894,0,29.847-13.781,33.178-32.77
	c3.658-20.861-7.338-40.284-24.51-43.296c-1.517-0.266-3.067-0.4-4.605-0.4c-15.893,0-29.846,13.78-33.175,32.77
	C310.454,374.187,321.448,393.609,338.621,396.622z"/>
</svg>
