<?xml version="1.0" encoding="utf-8"?>
<!-- Generator: Adobe Illustrator 16.0.0, SVG Export Plug-In . SVG Version: 6.00 Build 0)  -->
<!DOCTYPE svg PUBLIC "-//W3C//DTD SVG 1.1//EN" "http://www.w3.org/Graphics/SVG/1.1/DTD/svg11.dtd">
<svg version="1.1" id="Capa_1" xmlns="http://www.w3.org/2000/svg" xmlns:xlink="http://www.w3.org/1999/xlink" x="0px" y="0px"
	 width="637.795px" height="637.795px" viewBox="-12.667 114.387 637.795 637.795"
	 enable-background="new -12.667 114.387 637.795 637.795" xml:space="preserve">
<path d="M549.428,592.177c10.701,26.539,9.961,53.998-2.139,79.404c-13.844,29.074-44.725,45.088-86.949,45.088
	c-0.006,0-0.006,0-0.012,0c-42.969-0.004-89.004-15.938-113.588-30.736c-24.703-14.873-35.43-17.506-38.07-17.959
	c-1.66,0.195-3.342,0.191-5.013-0.012c-2.281,0.402-12.963,2.912-37.97,17.971c-24.591,14.803-70.628,30.736-113.591,30.736
	c-42.236,0-73.118-16.012-86.961-45.088C53.037,646.174,52.298,618.717,63,592.177c14.357-35.604,45.974-61.014,70.939-70.402
	c21.508-8.09,31.885-30.518,53.299-80.477c3.69-8.607,7.642-17.816,11.979-27.649c30.408-68.897,86.422-74.252,102.864-74.252
	c1.657,0,3.048,0.051,4.129,0.111c1.08-0.061,2.473-0.111,4.129-0.111c16.445,0,72.455,5.354,102.863,74.252
	c4.34,9.834,8.293,19.051,11.982,27.657c21.418,49.955,31.791,72.379,53.297,80.469
	C503.452,531.162,535.071,556.572,549.428,592.177z M104.928,483.697c38.677-10.885,59.998-55.811,47.525-100.147
	c-10.451-37.144-41.392-63.089-75.245-63.089c-5.931,0-11.828,0.813-17.528,2.418C21,333.763-0.317,378.688,12.155,423.023
	c10.451,37.143,41.395,63.088,75.247,63.088C93.331,486.111,99.228,485.299,104.928,483.697z M213.192,342.123
	c3.867,0,7.765-0.336,11.577-1.006c21.637-3.796,40.553-18.338,51.894-39.89c10.548-20.049,14.001-44.534,9.718-68.951
	c-8.372-47.73-43.451-82.376-83.402-82.376c-3.867,0-7.765,0.337-11.577,1.01c-21.637,3.792-40.55,18.335-51.894,39.889
	c-10.548,20.046-14.001,44.534-9.718,68.945C138.159,307.481,173.234,342.123,213.192,342.123z M596.614,362.172
	c-8.682-19.569-24.674-33.893-43.873-39.293c-5.699-1.605-11.596-2.418-17.527-2.418c-33.852,0-64.793,25.945-75.244,63.089
	c-12.473,44.336,8.848,89.262,47.525,100.147c5.699,1.605,11.598,2.418,17.525,2.418c33.85,0,64.797-25.945,75.246-63.09
	C606.112,402.261,604.815,380.65,596.614,362.172z M387.657,341.12c3.813,0.667,7.703,1.006,11.574,1.006c0.002,0,0.002,0,0.004,0
	c39.953,0,75.031-34.643,83.404-82.379c9.195-52.443-18.447-101.267-61.615-108.84c-3.814-0.67-7.711-1.007-11.576-1.007
	c-39.953,0-75.029,34.643-83.4,82.379C316.846,284.721,344.485,333.546,387.657,341.12z"/>
</svg>
